<?xml version="1.0" ?><svg data-name="Layer 1" id="Layer_1" viewBox="0 0 24 24" xmlns="http://www.w3.org/2000/svg"><defs><style>.cls-1{fill:#673ab7;}.cls-2{fill:#b388ff;}.cls-3{fill:none;}.cls-4{fill:#ede7f6;}</style></defs><title/><path class="cls-1" d="M16.5,22h-9a3,3,0,0,1-3-3V5a3,3,0,0,1,3-3h6.59a1,1,0,0,1,.7.29l4.42,4.42a1,1,0,0,1,.29.7V19A3,3,0,0,1,16.5,22Z"/><path class="cls-2" d="M18.8,7.74H15.2a1.5,1.5,0,0,1-1.5-1.5V2.64a.55.55,0,0,1,.94-.39L19.19,6.8A.55.55,0,0,1,18.8,7.74Z"/><path class="cls-3" d="M8.62,8.62h6.76v6.76H8.62Z"/><path class="cls-4" d="M12,11v2.41a1.05,1.05,0,0,0-.94-.09,1.14,1.14,0,0,0-.73.86,1.13,1.13,0,0,0,1.29,1.31,1.16,1.16,0,0,0,.94-1.16V11.59h.57a.56.56,0,0,0,0-1.12h-.57A.56.56,0,0,0,12,11Z"/></svg>